<mxfile host="app.diagrams.net" agent="Mozilla/5.0 (Windows NT 10.0; Win64; x64) AppleWebKit/537.36 (KHTML, like Gecko) Chrome/130.0.0.0 Safari/537.36" version="24.8.3">
  <diagram name="Page-1" id="eWObGorU3xz3L652zy4Z">
    <mxGraphModel dx="2584" dy="952" grid="1" gridSize="10" guides="1" tooltips="1" connect="1" arrows="1" fold="1" page="1" pageScale="1" pageWidth="827" pageHeight="1169" math="0" shadow="0">
      <root>
        <mxCell id="0" />
        <mxCell id="1" parent="0" />
        <mxCell id="Pu9wpXPuRrgYINqGZfbt-1" value="&lt;b&gt;&lt;font style=&quot;font-size: 18px;&quot;&gt;START&lt;/font&gt;&lt;/b&gt;" style="ellipse;whiteSpace=wrap;html=1;" vertex="1" parent="1">
          <mxGeometry x="360" width="90" height="60" as="geometry" />
        </mxCell>
        <mxCell id="Pu9wpXPuRrgYINqGZfbt-2" value="" style="endArrow=classic;html=1;rounded=0;exitX=0.5;exitY=1;exitDx=0;exitDy=0;" edge="1" parent="1" source="Pu9wpXPuRrgYINqGZfbt-1">
          <mxGeometry width="50" height="50" relative="1" as="geometry">
            <mxPoint x="390" y="320" as="sourcePoint" />
            <mxPoint x="405" y="90" as="targetPoint" />
          </mxGeometry>
        </mxCell>
        <mxCell id="Pu9wpXPuRrgYINqGZfbt-3" value="&lt;font style=&quot;font-size: 15px;&quot;&gt;Input week number&lt;/font&gt;" style="shape=parallelogram;perimeter=parallelogramPerimeter;whiteSpace=wrap;html=1;fixedSize=1;" vertex="1" parent="1">
          <mxGeometry x="325" y="90" width="160" height="40" as="geometry" />
        </mxCell>
        <mxCell id="Pu9wpXPuRrgYINqGZfbt-6" value="" style="endArrow=none;html=1;rounded=0;" edge="1" parent="1">
          <mxGeometry width="50" height="50" relative="1" as="geometry">
            <mxPoint x="-90" y="160" as="sourcePoint" />
            <mxPoint x="400" y="130" as="targetPoint" />
            <Array as="points">
              <mxPoint x="400" y="160" />
            </Array>
          </mxGeometry>
        </mxCell>
        <mxCell id="Pu9wpXPuRrgYINqGZfbt-8" value="" style="endArrow=classic;html=1;rounded=0;" edge="1" parent="1">
          <mxGeometry width="50" height="50" relative="1" as="geometry">
            <mxPoint x="-90.67" y="160" as="sourcePoint" />
            <mxPoint x="-91" y="210" as="targetPoint" />
          </mxGeometry>
        </mxCell>
        <mxCell id="Pu9wpXPuRrgYINqGZfbt-9" value="&lt;font size=&quot;1&quot; style=&quot;&quot;&gt;&lt;b style=&quot;font-size: 15px;&quot;&gt;week no. == 1&lt;/b&gt;&lt;/font&gt;" style="rhombus;whiteSpace=wrap;html=1;" vertex="1" parent="1">
          <mxGeometry x="-160" y="210" width="140" height="60" as="geometry" />
        </mxCell>
        <mxCell id="Pu9wpXPuRrgYINqGZfbt-11" value="&lt;font size=&quot;1&quot; style=&quot;&quot;&gt;&lt;b style=&quot;font-size: 15px;&quot;&gt;week no. == 2&lt;/b&gt;&lt;/font&gt;" style="rhombus;whiteSpace=wrap;html=1;" vertex="1" parent="1">
          <mxGeometry x="40" y="210" width="140" height="60" as="geometry" />
        </mxCell>
        <mxCell id="Pu9wpXPuRrgYINqGZfbt-12" value="&lt;font size=&quot;1&quot; style=&quot;&quot;&gt;&lt;b style=&quot;font-size: 15px;&quot;&gt;week no. == 3&lt;/b&gt;&lt;/font&gt;" style="rhombus;whiteSpace=wrap;html=1;" vertex="1" parent="1">
          <mxGeometry x="240" y="210" width="140" height="60" as="geometry" />
        </mxCell>
        <mxCell id="Pu9wpXPuRrgYINqGZfbt-13" value="&lt;font size=&quot;1&quot; style=&quot;&quot;&gt;&lt;b style=&quot;font-size: 15px;&quot;&gt;week no. == 4&lt;/b&gt;&lt;/font&gt;" style="rhombus;whiteSpace=wrap;html=1;" vertex="1" parent="1">
          <mxGeometry x="430" y="210" width="140" height="60" as="geometry" />
        </mxCell>
        <mxCell id="Pu9wpXPuRrgYINqGZfbt-14" value="&lt;font style=&quot;font-size: 15px;&quot;&gt;&lt;b&gt;week no. == 5&lt;/b&gt;&lt;/font&gt;" style="rhombus;whiteSpace=wrap;html=1;" vertex="1" parent="1">
          <mxGeometry x="630" y="210" width="140" height="60" as="geometry" />
        </mxCell>
        <mxCell id="Pu9wpXPuRrgYINqGZfbt-15" value="&lt;b&gt;&lt;font style=&quot;font-size: 15px;&quot;&gt;week no. == 6&lt;/font&gt;&lt;/b&gt;" style="rhombus;whiteSpace=wrap;html=1;" vertex="1" parent="1">
          <mxGeometry x="827" y="210" width="140" height="60" as="geometry" />
        </mxCell>
        <mxCell id="Pu9wpXPuRrgYINqGZfbt-16" value="&lt;font style=&quot;font-size: 15px;&quot;&gt;&lt;b&gt;week no. == 7&lt;/b&gt;&lt;/font&gt;" style="rhombus;whiteSpace=wrap;html=1;" vertex="1" parent="1">
          <mxGeometry x="1030" y="210" width="140" height="60" as="geometry" />
        </mxCell>
        <mxCell id="Pu9wpXPuRrgYINqGZfbt-18" value="" style="endArrow=classic;html=1;rounded=0;entryX=0;entryY=0.5;entryDx=0;entryDy=0;" edge="1" parent="1" target="Pu9wpXPuRrgYINqGZfbt-11">
          <mxGeometry width="50" height="50" relative="1" as="geometry">
            <mxPoint x="-20" y="240" as="sourcePoint" />
            <mxPoint x="30" y="190" as="targetPoint" />
          </mxGeometry>
        </mxCell>
        <mxCell id="Pu9wpXPuRrgYINqGZfbt-19" value="" style="endArrow=classic;html=1;rounded=0;entryX=0;entryY=0.5;entryDx=0;entryDy=0;" edge="1" parent="1">
          <mxGeometry width="50" height="50" relative="1" as="geometry">
            <mxPoint x="180" y="239.33" as="sourcePoint" />
            <mxPoint x="240" y="239.33" as="targetPoint" />
          </mxGeometry>
        </mxCell>
        <mxCell id="Pu9wpXPuRrgYINqGZfbt-20" value="" style="endArrow=classic;html=1;rounded=0;entryX=0;entryY=0.5;entryDx=0;entryDy=0;" edge="1" parent="1">
          <mxGeometry width="50" height="50" relative="1" as="geometry">
            <mxPoint x="375" y="239.33" as="sourcePoint" />
            <mxPoint x="435" y="239.33" as="targetPoint" />
          </mxGeometry>
        </mxCell>
        <mxCell id="Pu9wpXPuRrgYINqGZfbt-21" value="" style="endArrow=classic;html=1;rounded=0;entryX=0;entryY=0.5;entryDx=0;entryDy=0;" edge="1" parent="1">
          <mxGeometry width="50" height="50" relative="1" as="geometry">
            <mxPoint x="570" y="239.33" as="sourcePoint" />
            <mxPoint x="630" y="239.33" as="targetPoint" />
          </mxGeometry>
        </mxCell>
        <mxCell id="Pu9wpXPuRrgYINqGZfbt-22" value="" style="endArrow=classic;html=1;rounded=0;entryX=0;entryY=0.5;entryDx=0;entryDy=0;" edge="1" parent="1">
          <mxGeometry width="50" height="50" relative="1" as="geometry">
            <mxPoint x="767" y="239.33" as="sourcePoint" />
            <mxPoint x="827" y="239.33" as="targetPoint" />
          </mxGeometry>
        </mxCell>
        <mxCell id="Pu9wpXPuRrgYINqGZfbt-23" value="" style="endArrow=classic;html=1;rounded=0;entryX=0;entryY=0.5;entryDx=0;entryDy=0;" edge="1" parent="1">
          <mxGeometry width="50" height="50" relative="1" as="geometry">
            <mxPoint x="970" y="239.33" as="sourcePoint" />
            <mxPoint x="1030" y="239.33" as="targetPoint" />
          </mxGeometry>
        </mxCell>
        <mxCell id="Pu9wpXPuRrgYINqGZfbt-24" value="" style="endArrow=classic;html=1;rounded=0;" edge="1" parent="1">
          <mxGeometry width="50" height="50" relative="1" as="geometry">
            <mxPoint x="-90.34" y="270" as="sourcePoint" />
            <mxPoint x="-90" y="350" as="targetPoint" />
          </mxGeometry>
        </mxCell>
        <mxCell id="Pu9wpXPuRrgYINqGZfbt-25" value="" style="endArrow=classic;html=1;rounded=0;" edge="1" parent="1">
          <mxGeometry width="50" height="50" relative="1" as="geometry">
            <mxPoint x="109.33" y="270" as="sourcePoint" />
            <mxPoint x="109.67" y="350" as="targetPoint" />
          </mxGeometry>
        </mxCell>
        <mxCell id="Pu9wpXPuRrgYINqGZfbt-26" value="" style="endArrow=classic;html=1;rounded=0;" edge="1" parent="1">
          <mxGeometry width="50" height="50" relative="1" as="geometry">
            <mxPoint x="309.33" y="270" as="sourcePoint" />
            <mxPoint x="309.67" y="350" as="targetPoint" />
          </mxGeometry>
        </mxCell>
        <mxCell id="Pu9wpXPuRrgYINqGZfbt-27" value="" style="endArrow=classic;html=1;rounded=0;" edge="1" parent="1">
          <mxGeometry width="50" height="50" relative="1" as="geometry">
            <mxPoint x="499.33" y="270" as="sourcePoint" />
            <mxPoint x="499.67" y="350" as="targetPoint" />
          </mxGeometry>
        </mxCell>
        <mxCell id="Pu9wpXPuRrgYINqGZfbt-28" value="" style="endArrow=classic;html=1;rounded=0;" edge="1" parent="1">
          <mxGeometry width="50" height="50" relative="1" as="geometry">
            <mxPoint x="699.33" y="270" as="sourcePoint" />
            <mxPoint x="699.6700000000002" y="350" as="targetPoint" />
          </mxGeometry>
        </mxCell>
        <mxCell id="Pu9wpXPuRrgYINqGZfbt-29" value="" style="endArrow=classic;html=1;rounded=0;" edge="1" parent="1">
          <mxGeometry width="50" height="50" relative="1" as="geometry">
            <mxPoint x="896.33" y="270" as="sourcePoint" />
            <mxPoint x="896.6700000000002" y="350" as="targetPoint" />
          </mxGeometry>
        </mxCell>
        <mxCell id="Pu9wpXPuRrgYINqGZfbt-30" value="" style="endArrow=classic;html=1;rounded=0;" edge="1" parent="1">
          <mxGeometry width="50" height="50" relative="1" as="geometry">
            <mxPoint x="1099.33" y="270" as="sourcePoint" />
            <mxPoint x="1099.67" y="350" as="targetPoint" />
          </mxGeometry>
        </mxCell>
        <mxCell id="Pu9wpXPuRrgYINqGZfbt-31" value="&lt;font style=&quot;font-size: 18px;&quot;&gt;Output&quot;Monday&quot;&lt;/font&gt;" style="rounded=0;whiteSpace=wrap;html=1;" vertex="1" parent="1">
          <mxGeometry x="-170" y="350" width="160" height="50" as="geometry" />
        </mxCell>
        <mxCell id="Pu9wpXPuRrgYINqGZfbt-32" value="&lt;font style=&quot;font-size: 18px;&quot;&gt;Output&quot;Tuesday&quot;&lt;/font&gt;" style="rounded=0;whiteSpace=wrap;html=1;" vertex="1" parent="1">
          <mxGeometry x="30" y="350" width="160" height="50" as="geometry" />
        </mxCell>
        <mxCell id="Pu9wpXPuRrgYINqGZfbt-33" value="&lt;font style=&quot;font-size: 18px;&quot;&gt;Output&quot;wednesday&quot;&lt;/font&gt;" style="rounded=0;whiteSpace=wrap;html=1;" vertex="1" parent="1">
          <mxGeometry x="230" y="350" width="160" height="50" as="geometry" />
        </mxCell>
        <mxCell id="Pu9wpXPuRrgYINqGZfbt-34" value="&lt;font style=&quot;font-size: 18px;&quot;&gt;Output&quot;Thursday&quot;&lt;/font&gt;" style="rounded=0;whiteSpace=wrap;html=1;" vertex="1" parent="1">
          <mxGeometry x="420" y="350" width="160" height="50" as="geometry" />
        </mxCell>
        <mxCell id="Pu9wpXPuRrgYINqGZfbt-35" value="&lt;font style=&quot;font-size: 18px;&quot;&gt;Output&quot;Friday&quot;&lt;/font&gt;" style="rounded=0;whiteSpace=wrap;html=1;" vertex="1" parent="1">
          <mxGeometry x="620" y="350" width="160" height="50" as="geometry" />
        </mxCell>
        <mxCell id="Pu9wpXPuRrgYINqGZfbt-36" value="&lt;font style=&quot;font-size: 18px;&quot;&gt;Output&quot;Saturday&quot;&lt;/font&gt;" style="rounded=0;whiteSpace=wrap;html=1;" vertex="1" parent="1">
          <mxGeometry x="817" y="350" width="160" height="50" as="geometry" />
        </mxCell>
        <mxCell id="Pu9wpXPuRrgYINqGZfbt-37" value="&lt;font style=&quot;font-size: 18px;&quot;&gt;Output&quot;Sunday&quot;&lt;/font&gt;" style="rounded=0;whiteSpace=wrap;html=1;" vertex="1" parent="1">
          <mxGeometry x="1020" y="350" width="160" height="50" as="geometry" />
        </mxCell>
        <mxCell id="Pu9wpXPuRrgYINqGZfbt-38" value="" style="endArrow=classic;html=1;rounded=0;" edge="1" parent="1">
          <mxGeometry width="50" height="50" relative="1" as="geometry">
            <mxPoint x="-90" y="400" as="sourcePoint" />
            <mxPoint x="400" y="480" as="targetPoint" />
            <Array as="points">
              <mxPoint x="-90" y="480" />
            </Array>
          </mxGeometry>
        </mxCell>
        <mxCell id="Pu9wpXPuRrgYINqGZfbt-39" value="" style="endArrow=classic;html=1;rounded=0;" edge="1" parent="1">
          <mxGeometry width="50" height="50" relative="1" as="geometry">
            <mxPoint x="1100" y="400" as="sourcePoint" />
            <mxPoint x="480" y="480" as="targetPoint" />
            <Array as="points">
              <mxPoint x="1100" y="480" />
            </Array>
          </mxGeometry>
        </mxCell>
        <mxCell id="Pu9wpXPuRrgYINqGZfbt-42" value="" style="endArrow=none;html=1;rounded=0;" edge="1" parent="1">
          <mxGeometry width="50" height="50" relative="1" as="geometry">
            <mxPoint x="110" y="480" as="sourcePoint" />
            <mxPoint x="110" y="400" as="targetPoint" />
          </mxGeometry>
        </mxCell>
        <mxCell id="Pu9wpXPuRrgYINqGZfbt-43" value="" style="endArrow=none;html=1;rounded=0;" edge="1" parent="1">
          <mxGeometry width="50" height="50" relative="1" as="geometry">
            <mxPoint x="309.33" y="480" as="sourcePoint" />
            <mxPoint x="309.33" y="400" as="targetPoint" />
          </mxGeometry>
        </mxCell>
        <mxCell id="Pu9wpXPuRrgYINqGZfbt-44" value="" style="endArrow=none;html=1;rounded=0;" edge="1" parent="1">
          <mxGeometry width="50" height="50" relative="1" as="geometry">
            <mxPoint x="699.33" y="480" as="sourcePoint" />
            <mxPoint x="699.33" y="400" as="targetPoint" />
          </mxGeometry>
        </mxCell>
        <mxCell id="Pu9wpXPuRrgYINqGZfbt-45" value="" style="endArrow=none;html=1;rounded=0;" edge="1" parent="1">
          <mxGeometry width="50" height="50" relative="1" as="geometry">
            <mxPoint x="896.33" y="480" as="sourcePoint" />
            <mxPoint x="896.33" y="400" as="targetPoint" />
          </mxGeometry>
        </mxCell>
        <mxCell id="Pu9wpXPuRrgYINqGZfbt-46" value="" style="ellipse;whiteSpace=wrap;html=1;aspect=fixed;" vertex="1" parent="1">
          <mxGeometry x="400" y="450" width="80" height="80" as="geometry" />
        </mxCell>
        <mxCell id="Pu9wpXPuRrgYINqGZfbt-48" value="" style="endArrow=none;html=1;rounded=0;" edge="1" parent="1">
          <mxGeometry width="50" height="50" relative="1" as="geometry">
            <mxPoint x="499.33" y="480" as="sourcePoint" />
            <mxPoint x="499.33" y="400" as="targetPoint" />
          </mxGeometry>
        </mxCell>
        <mxCell id="Pu9wpXPuRrgYINqGZfbt-49" value="" style="endArrow=classic;html=1;rounded=0;" edge="1" parent="1" target="Pu9wpXPuRrgYINqGZfbt-50">
          <mxGeometry width="50" height="50" relative="1" as="geometry">
            <mxPoint x="440" y="530" as="sourcePoint" />
            <mxPoint x="440" y="600" as="targetPoint" />
          </mxGeometry>
        </mxCell>
        <mxCell id="Pu9wpXPuRrgYINqGZfbt-50" value="&lt;b&gt;&lt;font style=&quot;font-size: 25px;&quot;&gt;STOP&lt;/font&gt;&lt;/b&gt;" style="ellipse;whiteSpace=wrap;html=1;" vertex="1" parent="1">
          <mxGeometry x="380" y="560" width="120" height="80" as="geometry" />
        </mxCell>
        <mxCell id="Pu9wpXPuRrgYINqGZfbt-51" value="&lt;b&gt;&lt;font style=&quot;font-size: 17px;&quot;&gt;Y&lt;/font&gt;&lt;/b&gt;" style="text;html=1;align=center;verticalAlign=middle;resizable=0;points=[];autosize=1;strokeColor=none;fillColor=none;" vertex="1" parent="1">
          <mxGeometry x="-120" y="290" width="30" height="30" as="geometry" />
        </mxCell>
        <mxCell id="Pu9wpXPuRrgYINqGZfbt-52" value="&lt;b&gt;&lt;font style=&quot;font-size: 17px;&quot;&gt;Y&lt;/font&gt;&lt;/b&gt;" style="text;html=1;align=center;verticalAlign=middle;resizable=0;points=[];autosize=1;strokeColor=none;fillColor=none;" vertex="1" parent="1">
          <mxGeometry x="80" y="290" width="30" height="30" as="geometry" />
        </mxCell>
        <mxCell id="Pu9wpXPuRrgYINqGZfbt-53" value="&lt;b&gt;&lt;font style=&quot;font-size: 17px;&quot;&gt;Y&lt;/font&gt;&lt;/b&gt;" style="text;html=1;align=center;verticalAlign=middle;resizable=0;points=[];autosize=1;strokeColor=none;fillColor=none;" vertex="1" parent="1">
          <mxGeometry x="270" y="290" width="30" height="30" as="geometry" />
        </mxCell>
        <mxCell id="Pu9wpXPuRrgYINqGZfbt-54" value="&lt;b&gt;&lt;font style=&quot;font-size: 17px;&quot;&gt;Y&lt;/font&gt;&lt;/b&gt;" style="text;html=1;align=center;verticalAlign=middle;resizable=0;points=[];autosize=1;strokeColor=none;fillColor=none;" vertex="1" parent="1">
          <mxGeometry x="460" y="290" width="30" height="30" as="geometry" />
        </mxCell>
        <mxCell id="Pu9wpXPuRrgYINqGZfbt-55" value="&lt;b&gt;&lt;font style=&quot;font-size: 17px;&quot;&gt;Y&lt;/font&gt;&lt;/b&gt;" style="text;html=1;align=center;verticalAlign=middle;resizable=0;points=[];autosize=1;strokeColor=none;fillColor=none;" vertex="1" parent="1">
          <mxGeometry x="660" y="290" width="30" height="30" as="geometry" />
        </mxCell>
        <mxCell id="Pu9wpXPuRrgYINqGZfbt-56" value="&lt;b&gt;&lt;font style=&quot;font-size: 17px;&quot;&gt;Y&lt;/font&gt;&lt;/b&gt;" style="text;html=1;align=center;verticalAlign=middle;resizable=0;points=[];autosize=1;strokeColor=none;fillColor=none;" vertex="1" parent="1">
          <mxGeometry x="860" y="290" width="30" height="30" as="geometry" />
        </mxCell>
        <mxCell id="Pu9wpXPuRrgYINqGZfbt-57" value="&lt;b&gt;&lt;font style=&quot;font-size: 17px;&quot;&gt;Y&lt;/font&gt;&lt;/b&gt;" style="text;html=1;align=center;verticalAlign=middle;resizable=0;points=[];autosize=1;strokeColor=none;fillColor=none;" vertex="1" parent="1">
          <mxGeometry x="1070" y="290" width="30" height="30" as="geometry" />
        </mxCell>
        <mxCell id="Pu9wpXPuRrgYINqGZfbt-58" value="" style="endArrow=classic;html=1;rounded=0;exitX=1;exitY=0.5;exitDx=0;exitDy=0;" edge="1" parent="1" source="Pu9wpXPuRrgYINqGZfbt-16">
          <mxGeometry width="50" height="50" relative="1" as="geometry">
            <mxPoint x="1060" y="240" as="sourcePoint" />
            <mxPoint x="1440" y="340" as="targetPoint" />
            <Array as="points">
              <mxPoint x="1440" y="240" />
            </Array>
          </mxGeometry>
        </mxCell>
        <mxCell id="Pu9wpXPuRrgYINqGZfbt-59" value="&lt;font style=&quot;font-size: 18px;&quot;&gt;Invalid output &quot; Please enter a number b/w 1- 7&quot;&lt;/font&gt;" style="rounded=0;whiteSpace=wrap;html=1;" vertex="1" parent="1">
          <mxGeometry x="1224" y="345" width="430" height="60" as="geometry" />
        </mxCell>
        <mxCell id="Pu9wpXPuRrgYINqGZfbt-60" value="" style="endArrow=none;html=1;rounded=0;" edge="1" parent="1">
          <mxGeometry width="50" height="50" relative="1" as="geometry">
            <mxPoint x="1060" y="480" as="sourcePoint" />
            <mxPoint x="1440" y="405" as="targetPoint" />
            <Array as="points">
              <mxPoint x="1440" y="480" />
            </Array>
          </mxGeometry>
        </mxCell>
        <mxCell id="Pu9wpXPuRrgYINqGZfbt-61" value="&lt;font style=&quot;font-size: 16px;&quot;&gt;N&lt;/font&gt;" style="text;html=1;align=center;verticalAlign=middle;resizable=0;points=[];autosize=1;strokeColor=none;fillColor=none;" vertex="1" parent="1">
          <mxGeometry x="1170" y="210" width="40" height="30" as="geometry" />
        </mxCell>
      </root>
    </mxGraphModel>
  </diagram>
</mxfile>
